<svg width="1441" height="800" viewBox="0 0 1441 800" fill="none" xmlns="http://www.w3.org/2000/svg">
<g clip-path="url(#paint0_diamond_161_809_clip_path)" data-figma-skip-parse="true"><g transform="matrix(0.391809 -1.6844e-08 5.93949e-08 0.841682 720.01 1.92138e-05)"><rect x="0" y="0" width="1840.26" height="950.821" fill="url(#paint0_diamond_161_809)" opacity="1" shape-rendering="crispEdges"/><rect x="0" y="0" width="1840.26" height="950.821" transform="scale(1 -1)" fill="url(#paint0_diamond_161_809)" opacity="1" shape-rendering="crispEdges"/><rect x="0" y="0" width="1840.26" height="950.821" transform="scale(-1 1)" fill="url(#paint0_diamond_161_809)" opacity="1" shape-rendering="crispEdges"/><rect x="0" y="0" width="1840.26" height="950.821" transform="scale(-1)" fill="url(#paint0_diamond_161_809)" opacity="1" shape-rendering="crispEdges"/></g></g><path d="M-0.0214844 0H1440.04V759.289C1440.04 781.38 1422.13 799.289 1400.04 799.289H39.9786C17.8872 799.289 -0.0214844 781.38 -0.0214844 759.289V0Z" data-figma-gradient-fill="{&#34;type&#34;:&#34;GRADIENT_DIAMOND&#34;,&#34;stops&#34;:[{&#34;color&#34;:{&#34;r&#34;:0.13694988191127777,&#34;g&#34;:0.16393411159515381,&#34;b&#34;:0.37980768084526062,&#34;a&#34;:1.0},&#34;position&#34;:0.0},{&#34;color&#34;:{&#34;r&#34;:0.057414941489696503,&#34;g&#34;:0.070266284048557281,&#34;b&#34;:0.17307692766189575,&#34;a&#34;:1.0},&#34;position&#34;:1.0}],&#34;stopsVar&#34;:[{&#34;color&#34;:{&#34;r&#34;:0.13694988191127777,&#34;g&#34;:0.16393411159515381,&#34;b&#34;:0.37980768084526062,&#34;a&#34;:1.0},&#34;position&#34;:0.0},{&#34;color&#34;:{&#34;r&#34;:0.057414941489696503,&#34;g&#34;:0.070266284048557281,&#34;b&#34;:0.17307692766189575,&#34;a&#34;:1.0},&#34;position&#34;:1.0}],&#34;transform&#34;:{&#34;m00&#34;:783.61822509765625,&#34;m01&#34;:0.00011878972873091698,&#34;m02&#34;:328.20132446289062,&#34;m10&#34;:-3.3687942050164565e-05,&#34;m11&#34;:1683.3643798828125,&#34;m12&#34;:-841.682128906250},&#34;opacity&#34;:1.0,&#34;blendMode&#34;:&#34;NORMAL&#34;,&#34;visible&#34;:true}"/>
<defs>
<clipPath id="paint0_diamond_161_809_clip_path"><path d="M-0.0214844 0H1440.04V759.289C1440.04 781.38 1422.13 799.289 1400.04 799.289H39.9786C17.8872 799.289 -0.0214844 781.38 -0.0214844 759.289V0Z"/></clipPath><linearGradient id="paint0_diamond_161_809" x1="0" y1="0" x2="500" y2="500" gradientUnits="userSpaceOnUse">
<stop stop-color="#232A61"/>
<stop offset="1" stop-color="#0F122C"/>
</linearGradient>
</defs>
</svg>
