<svg xmlns="http://www.w3.org/2000/svg" width="93" height="25" viewBox="0 0 93 25" fill="none">
  <path d="M22.4259 23.7971H0.956944V0.885864H6.08634V19.1807H20.7067L22.4259 23.7971Z" fill="white"/>
  <path d="M60.8007 23.7971H23.4305L21.7337 19.1807H26.8631V14.5642H21.7337V0.885864H41.1228V5.50232H26.8631V9.98199H41.6056V14.5642H26.8631V19.1807H58.7106L60.8007 23.7971Z" fill="white"/>
  <path d="M80.7193 24.5H69.674V1.58867H80.7193C88.0714 1.58867 92.7221 5.86316 92.7221 13.0443C92.7221 20.2255 88.0714 24.5 80.7193 24.5ZM88.3858 12.0617L77.0401 6.27564L73.0087 12.0617L77.0401 19.437L88.3858 12.0617Z" fill="white"/>
  <path d="M48.225 17.6886H43.4414L50.0493 0.885864H57.3672L67.6467 23.7972H61.6894L59.1019 17.6886H53.8792H48.225ZM52.101 9.12709L48.225 17.6886H53.8792H59.1019L55.2813 9.12709L53.8792 5.57071H53.5031L52.101 9.12709Z" fill="white"/>
</svg>